<?xml version="1.0" encoding="UTF-8" standalone="no"?>
<!DOCTYPE svg PUBLIC "-//W3C//DTD SVG 1.1//EN" "http://www.w3.org/Graphics/SVG/1.1/DTD/svg11.dtd">
<svg width="100%" height="100%" viewBox="0 0 1000 1000" version="1.1" xmlns="http://www.w3.org/2000/svg" xmlns:xlink="http://www.w3.org/1999/xlink" xml:space="preserve" xmlns:serif="http://www.serif.com/" style="fill-rule:evenodd;clip-rule:evenodd;stroke-linejoin:round;stroke-miterlimit:2;">
    <g transform="matrix(1,0,0,1,-1237.26,0)">
        <g id="Logo" transform="matrix(0.947275,0,0,1.14081,1237.26,0)">
            <rect x="0" y="0" width="1055.66" height="876.571" style="fill:none;"/>
            <clipPath id="_clip1">
                <rect x="0" y="0" width="1055.66" height="876.571"/>
            </clipPath>
            <g clip-path="url(#_clip1)">
                <g transform="matrix(1.8645,0,0,1.8645,-456.31,-378.899)">
                    <g transform="matrix(0.566189,0,0,0.467675,244.736,203.217)">
                        <path d="M1000,42.221L1000,98.516C1000,121.818 981.18,140.737 958,140.737L42,140.737C18.82,140.737 0,121.818 0,98.516L0,42.221C0,18.919 18.82,0 42,0L958,0C981.18,0 1000,18.919 1000,42.221Z"/>
                    </g>
                    <g transform="matrix(0.404825,0,0,0.467675,244.736,304.297)">
                        <path d="M1000,42.221L1000,98.516C1000,121.818 973.679,140.737 941.259,140.737L58.741,140.737C26.321,140.737 0,121.818 0,98.516L0,42.221C0,18.919 26.321,0 58.741,0L941.259,0C973.679,0 1000,18.919 1000,42.221Z"/>
                    </g>
                    <g transform="matrix(0.121731,0,0,0.467675,689.194,304.297)">
                        <path d="M1000,42.221L1000,98.516C1000,121.818 912.467,140.737 804.651,140.737L195.349,140.737C87.533,140.737 0,121.818 0,98.516L0,42.221C0,18.919 87.533,0 195.349,0L804.651,0C912.467,0 1000,18.919 1000,42.221Z"/>
                    </g>
                    <g transform="matrix(-0.404825,0,0,0.467675,810.924,506.455)">
                        <path d="M1000,42.221L1000,98.516C1000,121.818 973.679,140.737 941.259,140.737L58.741,140.737C26.321,140.737 0,121.818 0,98.516L0,42.221C0,18.919 26.321,0 58.741,0L941.259,0C973.679,0 1000,18.919 1000,42.221Z"/>
                    </g>
                    <g transform="matrix(-0.121731,0,0,0.467675,366.466,506.455)">
                        <path d="M1000,42.221L1000,98.516C1000,121.818 912.467,140.737 804.651,140.737L195.349,140.737C87.533,140.737 0,121.818 0,98.516L0,42.221C0,18.919 87.533,0 195.349,0L804.651,0C912.467,0 1000,18.919 1000,42.221Z"/>
                    </g>
                    <g transform="matrix(0.243461,0,0,0.467675,244.736,405.376)">
                        <path d="M1000,42.221L1000,98.516C1000,121.818 956.234,140.737 902.326,140.737L97.674,140.737C43.766,140.737 0,121.818 0,98.516L0,42.221C0,18.919 43.766,0 97.674,0L902.326,0C956.234,0 1000,18.919 1000,42.221Z"/>
                    </g>
                    <g transform="matrix(0.283094,0,0,0.467675,527.83,405.376)">
                        <path d="M1000,42.221L1000,98.516C1000,121.818 962.361,140.737 916,140.737L84,140.737C37.639,140.737 0,121.818 0,98.516L0,42.221C0,18.919 37.639,0 84,0L916,0C962.361,0 1000,18.919 1000,42.221Z"/>
                    </g>
                    <g transform="matrix(0.566189,0,0,0.467675,244.736,607.535)">
                        <path d="M1000,42.221L1000,98.516C1000,121.818 981.18,140.737 958,140.737L42,140.737C18.82,140.737 0,121.818 0,98.516L0,42.221C0,18.919 18.82,0 42,0L958,0C981.18,0 1000,18.919 1000,42.221Z"/>
                    </g>
                </g>
            </g>
        </g>
    </g>
</svg>
